<?xml version="1.0" encoding="UTF-8"?>
<svg version="1.1" xmlns="http://www.w3.org/2000/svg" width="2000" height="800">
<path d="M0 0 C5.15341022 -0.11696659 9.33918097 -0.06280319 14.11328125 2.12109375 C41.42550026 32.97651955 47.58464016 81.81629826 46.11328125 121.12109375 C44.73939988 141.05313105 39.8997253 160.74162311 32.11328125 179.12109375 C31.83145996 179.79172852 31.54963867 180.46236328 31.25927734 181.15332031 C23.82493322 198.5507529 13.77731792 214.09876923 1.11328125 228.12109375 C-0.20090562 229.64046965 -1.51364635 231.161099 -2.82421875 232.68359375 C-3.84465985 233.82977641 -4.86542794 234.97566815 -5.88671875 236.12109375 C-6.56734375 236.92546875 -7.24796875 237.72984375 -7.94921875 238.55859375 C-14.49204734 243.83506842 -29.48541039 241.58701132 -37.41699219 240.90283203 C-63.65103393 237.97937536 -88.02492342 229.19006397 -110.88671875 216.12109375 C-107.42835501 212.22371493 -103.45299944 209.90941778 -99.01171875 207.30859375 C-91.78019725 202.9763836 -84.72974986 198.4278109 -77.76171875 193.68359375 C-76.82908203 193.05340332 -75.89644531 192.42321289 -74.93554688 191.77392578 C-70.63910481 188.83651618 -66.47496617 185.85407103 -62.49609375 182.49609375 C-54.20826667 175.55366724 -49.26898122 173.03664304 -38.39453125 173.9296875 C-34.34848577 174.15046281 -31.91896112 173.70880577 -28.5 171.59375 C-23.15317108 166.7129885 -20.2722793 161.05381139 -19.57421875 153.93359375 C-20.11124128 147.38191882 -22.35553305 142.14376257 -27.26171875 137.68359375 C-32.44133416 133.70520829 -37.38019419 132.47044129 -43.88671875 133.12109375 C-50.73673389 134.84176528 -54.85668226 137.35721552 -58.828125 143.21875 C-60.84483516 146.84287491 -61.04859514 149.85943923 -61.07421875 153.93359375 C-61.08839844 154.95066406 -61.10257813 155.96773437 -61.1171875 157.015625 C-60.8709512 160.33355486 -60.05969625 163.01942597 -58.88671875 166.12109375 C-75.54188704 178.49937932 -92.68155465 189.88628957 -110.88671875 199.87109375 C-112.25715332 200.62338257 -112.25715332 200.62338257 -113.65527344 201.39086914 C-116.046647 202.67727401 -118.45729137 203.9085643 -120.88671875 205.12109375 C-121.92054688 205.66378906 -122.954375 206.20648438 -124.01953125 206.765625 C-128.64973072 207.3396688 -131.20385785 204.80365153 -134.76171875 202.05859375 C-135.87003052 201.23790405 -135.87003052 201.23790405 -137.00073242 200.40063477 C-139.31812473 198.66770333 -141.60575629 196.90164347 -143.88671875 195.12109375 C-144.59812012 194.56808594 -145.30952148 194.01507813 -146.04248047 193.4453125 C-155.04079737 186.39967871 -163.54166636 178.92264205 -171.88671875 171.12109375 C-172.93805369 170.16960443 -173.99148001 169.22042139 -175.046875 168.2734375 C-180.10239533 163.7275933 -184.94333064 159.15823739 -189.3203125 153.9375 C-190.88613791 152.1217673 -192.53573995 150.47166671 -194.26171875 148.80859375 C-198.37572926 144.74931508 -201.94344852 140.29487444 -205.54345703 135.78076172 C-207.06035757 133.90655419 -208.61092165 132.06302051 -210.1640625 130.21875 C-211.28018335 128.87389327 -212.3960707 127.52884272 -213.51171875 126.18359375 C-214.05723389 125.54486328 -214.60274902 124.90613281 -215.16479492 124.24804688 C-218.92400377 119.66580879 -218.92400377 119.66580879 -218.75292969 117.16650391 C-217.65667923 114.57789447 -216.23065238 113.09299729 -214.23828125 111.109375 C-213.48595215 110.35615967 -212.73362305 109.60294434 -211.95849609 108.8269043 C-210.74734131 107.64221558 -210.74734131 107.64221558 -209.51171875 106.43359375 C-208.68752441 105.61995361 -207.86333008 104.80631348 -207.01416016 103.96801758 C-201.21543487 98.29510402 -195.28703371 93.10406877 -188.88671875 88.12109375 C-187.69861339 87.13667331 -186.51396942 86.14806658 -185.33203125 85.15625 C-175.2974503 76.77111989 -164.78794827 69.33242784 -153.88671875 62.12109375 C-153.18998047 61.65493652 -152.49324219 61.1887793 -151.77539062 60.70849609 C-128.81263746 45.35395061 -104.61360109 31.63789356 -79.38671875 20.37109375 C-78.41275146 19.92797852 -77.43878418 19.48486328 -76.43530273 19.02832031 C-75.52208252 18.6309668 -74.6088623 18.23361328 -73.66796875 17.82421875 C-72.86423828 17.47004883 -72.06050781 17.11587891 -71.23242188 16.75097656 C-68.38328219 15.98590783 -66.68831461 16.25154319 -63.88671875 17.12109375 C-61.2734375 19.16015625 -61.2734375 19.16015625 -58.57421875 21.74609375 C-57.59832067 22.66867208 -56.62175525 23.590545 -55.64453125 24.51171875 C-54.73445312 25.3728125 -53.824375 26.23390625 -52.88671875 27.12109375 C-51.58119888 28.25418647 -50.26948599 29.38021935 -48.94921875 30.49609375 C-39.66498576 38.60077255 -31.53028398 47.46970795 -23.88671875 57.12109375 C-22.3254988 58.99715972 -20.76300017 60.87216234 -19.19921875 62.74609375 C-15.86018767 66.79481436 -12.94796726 70.9276353 -10.2734375 75.44140625 C-8.57288221 77.50123379 -7.51650159 77.85864037 -4.88671875 78.12109375 C-4.22671875 77.79109375 -3.56671875 77.46109375 -2.88671875 77.12109375 C-5.17511144 59.74439761 -21.4997483 42.84335681 -32.88671875 30.12109375 C-33.39799316 29.54810547 -33.90926758 28.97511719 -34.43603516 28.38476562 C-36.01575544 26.62275132 -37.60468726 24.86971026 -39.19921875 23.12109375 C-39.67875 22.59290039 -40.15828125 22.06470703 -40.65234375 21.52050781 C-43.05219016 18.92621402 -45.48253598 16.58334296 -48.2421875 14.37109375 C-49.11488281 13.62859375 -49.98757813 12.88609375 -50.88671875 12.12109375 C-50.88671875 11.46109375 -50.88671875 10.80109375 -50.88671875 10.12109375 C-34.41424965 4.43611149 -17.44125253 0.73163576 0 0 Z " fill="#000F7E" transform="translate(382.88671875,292.87890625)"/>
<path d="M0 0 C5.64263238 5.06454532 8.7523886 11.87567244 12.06640625 18.57421875 C12.64003906 17.85105469 13.21367188 17.12789063 13.8046875 16.3828125 C24.26975692 3.38732905 35.00521262 -5.48760336 51.90234375 -8.10546875 C66.34195843 -9.5672569 83.04699131 -9.3866896 95.11328125 -0.17578125 C110.82702319 13.90373153 113.66147601 32.45732272 115.06640625 52.57421875 C115.36603553 59.53357483 115.30237659 66.49696352 115.26171875 73.4609375 C115.25797536 75.38434195 115.25513469 77.30774834 115.25314331 79.2311554 C115.24561101 84.22373996 115.22605578 89.21620282 115.20373535 94.20874023 C115.17939352 100.23635596 115.17044626 106.26401303 115.15882874 112.29166412 C115.13962225 121.3859329 115.10122801 130.47993616 115.06640625 139.57421875 C101.86640625 139.57421875 88.66640625 139.57421875 75.06640625 139.57421875 C75.02902344 133.44472656 74.99164062 127.31523437 74.953125 121 C74.9228145 117.09437405 74.8916465 113.18879197 74.85742188 109.28320312 C74.80329532 103.0972731 74.75217839 96.91142985 74.7199707 90.7253418 C74.69377598 85.73255402 74.65326169 80.74006118 74.60321999 75.7474575 C74.58665985 73.85192753 74.57507854 71.95634667 74.56879234 70.06075478 C74.82180757 49.54587427 74.82180757 49.54587427 66.06640625 31.57421875 C60.97331188 26.85378982 54.80615319 25.97361116 48.06640625 25.57421875 C40.77645444 26.03342831 33.7061406 27.54664386 28.63671875 33.15625 C20.56225088 44.50350515 21.59859286 59.63542181 21.5546875 72.875 C21.53780881 74.80699277 21.51965437 76.73897476 21.50028992 78.67094421 C21.45312991 83.7128462 21.42310186 88.75470452 21.39685059 93.79675293 C21.36158494 99.86940199 21.30467056 105.94188345 21.25145721 112.01439667 C21.17334282 121.2009816 21.1224355 130.38735319 21.06640625 139.57421875 C7.86640625 139.57421875 -5.33359375 139.57421875 -18.93359375 139.57421875 C-18.97097656 133.37253906 -19.00835938 127.17085937 -19.046875 120.78125 C-19.07718485 116.83005142 -19.10835245 112.87889625 -19.14257812 108.92773438 C-19.19670845 102.66937568 -19.2478253 96.41110284 -19.2800293 90.15258789 C-19.30622055 85.10144718 -19.34673253 80.05059817 -19.39678001 74.99963951 C-19.41334246 73.08178042 -19.42492235 71.163871 -19.43120766 69.2459507 C-18.9704902 49.71015625 -18.9704902 49.71015625 -26.93359375 32.57421875 C-33.44358324 26.56499768 -39.59367924 26.03297766 -48.19140625 26.26171875 C-54.78004434 26.81191817 -58.94673188 28.71981434 -63.74609375 33.19921875 C-68.34388959 39.62027845 -70.14114598 46.51813342 -71.02099609 54.28686523 C-71.10584448 55.02762267 -71.19069286 55.76838011 -71.27811241 56.53158474 C-72.17524855 64.96648 -72.28651843 73.38455163 -72.34765625 81.859375 C-72.36643182 83.5390257 -72.38600959 85.21866759 -72.40634155 86.89830017 C-72.45699569 91.2562229 -72.4969718 95.614176 -72.53448486 99.972229 C-72.58210203 105.23483024 -72.64340513 110.49728883 -72.70233154 115.75977325 C-72.78972699 123.69786202 -72.86007321 131.63593491 -72.93359375 139.57421875 C-85.80359375 139.57421875 -98.67359375 139.57421875 -111.93359375 139.57421875 C-111.93359375 91.72421875 -111.93359375 43.87421875 -111.93359375 -5.42578125 C-99.06359375 -5.42578125 -86.19359375 -5.42578125 -72.93359375 -5.42578125 C-72.43859375 3.97921875 -72.43859375 3.97921875 -71.93359375 13.57421875 C-71.12921875 12.23359375 -70.32484375 10.89296875 -69.49609375 9.51171875 C-63.27386222 0.22218998 -54.05066208 -5.10123595 -43.30859375 -7.67578125 C-28.43549216 -10.26643036 -12.41697145 -9.15594865 0 0 Z " fill="#000F7E" transform="translate(1510.93359375,304.42578125)"/>
<path d="M0 0 C13.53 0 27.06 0 41 0 C43.4741717 4.94834341 45.72898999 9.57880382 47.74438477 14.671875 C47.99182308 15.29426937 48.2392614 15.91666374 48.49419785 16.55791855 C49.31328891 18.62063313 50.12732168 20.68530496 50.94140625 22.75 C51.53500837 24.2475454 52.12894606 25.74495782 52.72319031 27.24224854 C54.33660835 31.30998596 55.94573427 35.3794086 57.55403137 39.44917297 C59.25149293 43.74274316 60.9524458 48.03492938 62.65332031 52.32714844 C63.00013918 53.2023753 63.34695805 54.07760216 63.70428658 54.97935104 C64.41642944 56.77650374 65.12858331 58.57365209 65.84074783 60.3707962 C66.93743861 63.13879769 68.0336157 65.90700221 69.12973022 68.67523193 C74.23651717 81.56928623 79.36691301 94.45378971 84.50988579 107.33345032 C86.9176966 113.36425566 89.32327972 119.39595014 91.72915363 125.42752838 C93.67822459 130.31318926 95.62879885 135.19823992 97.58255005 140.08203125 C99.42860069 144.69678916 101.27062124 149.31313608 103.10975075 153.93065643 C103.78655779 155.62778383 104.46484382 157.32432231 105.1447506 159.02021027 C106.07995049 161.3533882 107.00980363 163.68863197 107.93847656 166.02441406 C108.20633248 166.68895599 108.4741884 167.35349792 108.75016117 168.03817749 C110.84039163 173.32076156 112.34894063 178.49646877 114 184 C99.81 184 85.62 184 71 184 C67.52625156 175.66300375 64.23404564 167.41815034 61.1875 158.9375 C60.78080078 157.82439453 60.37410156 156.71128906 59.95507812 155.56445312 C59.57158203 154.50033203 59.18808594 153.43621094 58.79296875 152.33984375 C58.4477417 151.38456787 58.10251465 150.42929199 57.74682617 149.44506836 C57 147 57 147 57 144 C33.24 144 9.48 144 -15 144 C-15.99 147.3 -16.98 150.6 -18 154 C-18.87550432 156.52156642 -19.77392874 159.03533659 -20.69921875 161.5390625 C-21.13838623 162.73225098 -21.57755371 163.92543945 -22.0300293 165.15478516 C-22.57699463 166.62995605 -23.12395996 168.10512695 -23.6875 169.625 C-25.440625 174.36875 -27.19375 179.1125 -29 184 C-43.52 184 -58.04 184 -73 184 C-66.82604533 167.85698949 -60.55087969 151.76669022 -54.10028076 135.73239136 C-45.76369687 115.00398028 -37.52839462 94.23856507 -29.375 73.4375 C-17.49898323 43.14544386 -17.49898323 43.14544386 -12.0625 29.5625 C-11.63308105 28.48863037 -11.20366211 27.41476074 -10.76123047 26.30834961 C-7.23132866 17.51452214 -3.6083171 8.76305582 0 0 Z M20 47 C17.1652356 54.84947704 14.33126421 62.69923974 11.49829292 70.54936409 C10.18267967 74.19483302 8.86679784 77.84020452 7.55029297 81.48535156 C6.27880705 85.00588124 5.00803871 88.52666918 3.73775864 92.04763412 C3.25402016 93.38807186 2.77002717 94.72841778 2.28577042 96.06866837 C1.60535854 97.95194526 0.92595147 99.83558509 0.24658203 101.71923828 C-0.33299759 103.32474045 -0.33299759 103.32474045 -0.92428589 104.962677 C-1.98662502 107.9622352 -2.993724 110.98117201 -4 114 C12.17 114 28.34 114 45 114 C42.64988107 105.25005392 42.64988107 105.25005392 39.85522461 96.71826172 C39.26462502 95.07263748 39.26462502 95.07263748 38.66209412 93.39376831 C38.2463765 92.25062164 37.83065887 91.10747498 37.40234375 89.9296875 C36.96741104 88.72684113 36.53247833 87.52399475 36.08436584 86.28469849 C35.17136582 83.76446883 34.25651497 81.24500494 33.33862305 78.7265625 C32.16162944 75.49576283 30.99542377 72.26118077 29.83185482 69.02552605 C28.71609846 65.92868908 27.58988871 62.83565974 26.46484375 59.7421875 C26.0471019 58.57879852 25.62936005 57.41540955 25.19895935 56.21676636 C24.80837845 55.15120514 24.41779755 54.08564392 24.01538086 52.98779297 C23.67357285 52.04612274 23.33176483 51.10445251 22.979599 50.13424683 C22.19460545 47.83632961 22.19460545 47.83632961 20 47 Z " fill="#000F7E" transform="translate(1038,260)"/>
<path d="M0 0 C4.23076058 3.62292727 7.90815818 7.36223727 11 12 C11.33 5.73 11.66 -0.54 12 -7 C24.87 -7 37.74 -7 51 -7 C51 40.85 51 88.7 51 138 C38.13 138 25.26 138 12 138 C11.505 129.09 11.505 129.09 11 120 C9.700625 121.52625 8.40125 123.0525 7.0625 124.625 C-2.8120633 135.54873565 -15.35294943 141.13331347 -29.9921875 142.22265625 C-46.46994116 142.68596717 -61.94787655 138.49483459 -74.5 127.5 C-76.01843296 126.01866231 -77.52076309 124.52047958 -79 123 C-79.82371094 122.22462891 -79.82371094 122.22462891 -80.6640625 121.43359375 C-96.35197693 105.36816266 -98.41906206 80.612681 -98.21484375 59.5546875 C-97.75284943 39.48519523 -91.10411821 20.93992257 -77.2734375 6.12890625 C-56.5149986 -13.30983808 -23.49003638 -15.82167612 0 0 Z M-49.68359375 35 C-58.02842089 46.65362394 -60.51159042 60.43076937 -58.50390625 74.46875 C-56.27501726 86.05393574 -52.57291073 95.63622251 -43 103 C-34.68032255 108.21764483 -25.76865726 109.94009129 -16.046875 108.58984375 C-6.44620868 106.35058219 0.69771751 101.44526489 6.49609375 93.5078125 C13.91261126 81.14052876 14.76694531 66.05644301 12.31640625 52.109375 C9.20362431 41.20818015 3.19990935 31.60821352 -6.890625 25.9375 C-21.46605085 19.34687266 -39.30089096 22.6660236 -49.68359375 35 Z " fill="#000F7E" transform="translate(1322,306)"/>
<path d="M0 0 C0.55042969 0.49113281 1.10085938 0.98226562 1.66796875 1.48828125 C1.66796875 2.14828125 1.66796875 2.80828125 1.66796875 3.48828125 C1.06025635 3.74931641 0.45254395 4.01035156 -0.17358398 4.27929688 C-7.23942924 7.31940059 -14.29150641 10.38998598 -21.33203125 13.48828125 C-22.11980957 13.83455566 -22.90758789 14.18083008 -23.71923828 14.53759766 C-50.55484279 26.44183467 -75.71106726 42.44102908 -99.22802734 59.92675781 C-101.30272236 61.46652914 -103.38840697 62.99027052 -105.4765625 64.51171875 C-118.36889105 73.96516485 -130.26058419 84.44484089 -141.94140625 95.34375 C-144.33203125 97.48828125 -144.33203125 97.48828125 -147.33203125 99.48828125 C-168.63638079 69.41155248 -184.00229771 30.26006188 -178.08203125 -6.98828125 C-175.21660465 -20.44981664 -168.65581178 -31.52316106 -157.33203125 -39.51171875 C-108.93012106 -67.38637126 -39.06169895 -28.28188126 0 0 Z " fill="#000F7E" transform="translate(299.33203125,294.51171875)"/>
<path d="M0 0 C15.02308691 12.82793266 22.82988053 29.61789138 25.12890625 49.06640625 C26.82694537 71.07016317 23.37226848 94.18895416 8.80761719 111.58105469 C-5.48359203 127.7723103 -25.25033911 134.71198131 -46.37890625 136.2890625 C-69.00394821 136.8414786 -89.63045756 129.99462581 -106.27734375 114.375 C-121.60217826 98.44661893 -125.90333242 77.28736943 -125.7109375 55.91015625 C-124.87158841 34.38838481 -117.44767234 16.45761686 -102.05859375 1.37890625 C-74.54152326 -22.4664079 -28.26304176 -22.04948754 0 0 Z M-75.55859375 27.00390625 C-84.54336744 38.48344608 -87.36103389 50.98289251 -86.30859375 65.4375 C-84.68452664 77.74850869 -80.58391902 88.47333104 -70.62109375 96.31640625 C-62.37282623 102.02197476 -54.0083695 103.63817508 -44.03515625 102.7890625 C-35.07203126 101.13796053 -28.16518654 96.52928909 -22.3515625 89.61328125 C-13.70139442 77.02436561 -12.81698892 61.59726672 -14.85888672 46.83251953 C-17.11822214 35.70853048 -23.53320556 27.59803677 -32.55859375 21.00390625 C-46.19388473 13.31292601 -64.60953929 15.82337072 -75.55859375 27.00390625 Z " fill="#000F7E" transform="translate(1769.55859375,311.99609375)"/>
<path d="M0 0 C1.17175781 0.95519531 1.17175781 0.95519531 2.3671875 1.9296875 C3.20121094 2.55746094 4.03523437 3.18523437 4.89453125 3.83203125 C17.83974772 14.81399214 24.50178427 32.4547103 26.3671875 48.9296875 C27.53811068 72.73317413 25.10660849 95.11437268 8.859375 113.81640625 C-6.77710492 130.14338599 -26.48026048 136.80375986 -48.6953125 137.3046875 C-69.71127144 136.82799415 -90.47031001 130.07990543 -105.39892578 114.81713867 C-121.9165671 96.92713611 -124.30946727 74.33741917 -123.76904297 50.99511719 C-123.00736381 33.85597114 -115.10180562 15.82318863 -102.6328125 3.9296875 C-74.47895304 -19.59125838 -29.61361986 -22.9713126 0 0 Z M-72.6328125 26.9296875 C-73.45072266 27.66638672 -73.45072266 27.66638672 -74.28515625 28.41796875 C-83.01306035 37.36795692 -84.88799466 50.32435503 -84.8815918 62.26953125 C-84.69061678 75.15141434 -80.74525705 86.60532563 -71.6328125 95.9296875 C-64.20461816 102.02150109 -55.01443544 104.3681792 -45.5078125 103.8671875 C-36.63231459 102.77660344 -28.61408867 99.77590312 -22.6328125 92.9296875 C-13.35119568 80.07990194 -10.69756464 65.18151401 -13.1640625 49.56640625 C-15.40451646 39.98359501 -19.03829382 31.47203486 -26.6328125 24.9296875 C-41.78693567 15.77365764 -58.88683564 14.43064591 -72.6328125 26.9296875 Z " fill="#000F7E" transform="translate(737.6328125,311.0703125)"/>
<path d="M0 0 C6.15944234 5.80579015 11.23516258 12.3801104 12.75 20.8125 C8.10584074 21.67037467 3.46106181 22.52478051 -1.18432617 23.37597656 C-2.76457965 23.66603849 -4.34465951 23.95704793 -5.92456055 24.24902344 C-8.19535069 24.66850965 -10.46674315 25.08458564 -12.73828125 25.5 C-13.44463211 25.63124268 -14.15098297 25.76248535 -14.8787384 25.89770508 C-17.71903673 26.41430013 -20.35569901 26.8125 -23.25 26.8125 C-24.16432308 25.39021966 -25.07647969 23.96649094 -25.9765625 22.53515625 C-30.95073355 15.80629295 -38.2523896 13.14171178 -46.25 11.8125 C-55.66661138 10.92440641 -64.42015201 12.37954425 -72.25 17.8125 C-74.89878689 21.15227478 -74.54514746 24.68043556 -74.25 28.8125 C-72.93301074 32.4635808 -71.30983803 33.70052154 -67.87109375 35.40234375 C-62.17041819 38.07533399 -56.4849689 39.29408467 -50.3125 40.375 C-48.09885852 40.79243982 -45.88531772 41.21041382 -43.671875 41.62890625 C-42.58583984 41.82887207 -41.49980469 42.02883789 -40.38085938 42.23486328 C-0.30002711 49.62968932 -0.30002711 49.62968932 11.53125 65.46484375 C15.02625973 72.19721827 16.28469966 78.64835504 16.1875 86.1875 C16.17614014 87.43140503 16.17614014 87.43140503 16.16455078 88.70043945 C15.82292567 101.46150888 10.70128641 110.25512113 1.625 118.9375 C-16.07182077 133.97979765 -40.14587169 134.84119922 -62.25 133.8125 C-79.88430412 132.24943557 -98.03028548 125.2738135 -110.2734375 112.20703125 C-115.42909427 105.96114667 -118.20923144 100.86668291 -119.25 92.8125 C-115.08846489 92.09407153 -110.92587259 91.38221975 -106.76220703 90.67626953 C-105.34784097 90.43553325 -103.93377167 90.19304625 -102.52001953 89.94873047 C-100.48026042 89.59655219 -98.43949405 89.25081919 -96.3984375 88.90625 C-95.17302246 88.69677734 -93.94760742 88.48730469 -92.68505859 88.27148438 C-89.46727723 87.84153207 -86.48939036 87.60916358 -83.25 87.8125 C-81.59765625 89.38671875 -81.59765625 89.38671875 -80.3125 91.5 C-74.77621987 99.61796516 -67.63671833 102.31773614 -58.3125 104.5 C-48.48858697 105.50244011 -37.80495894 105.31211646 -29.25 99.8125 C-25.82250592 96.38500592 -24.34963768 93.69474611 -24.25 88.8125 C-26.04134563 83.54383639 -28.51686641 81.55673934 -33.25 78.8125 C-35.99326302 77.78195263 -38.77975039 77.06753436 -41.625 76.375 C-42.44081543 76.16673584 -43.25663086 75.95847168 -44.09716797 75.74389648 C-49.7986467 74.32146461 -55.53369447 73.12919264 -61.296875 71.98657227 C-96.64356898 64.96377179 -96.64356898 64.96377179 -108.00390625 50.70703125 C-114.71639164 40.50152838 -115.9454653 28.50580934 -113.63671875 16.66796875 C-110.03343411 5.57239182 -102.2621277 -2.50572651 -92.25 -8.1875 C-63.86479162 -22.47744715 -24.79657772 -20.91861669 0 0 Z " fill="#000F7E" transform="translate(892.25,313.1875)"/>
<path d="M0 0 C5.30130435 5.30130435 10.39641169 11.54513782 12.75 18.75 C12.75 19.74 12.75 20.73 12.75 21.75 C8.26800262 22.63368297 3.78402294 23.50616491 -0.70214844 24.3684082 C-2.2274825 24.66320024 -3.75223344 24.96102657 -5.27636719 25.26196289 C-7.46923344 25.69438925 -9.66397597 26.11580385 -11.859375 26.53515625 C-12.5386908 26.67156021 -13.21800659 26.80796417 -13.91790771 26.94850159 C-20.26711826 28.14028913 -20.26711826 28.14028913 -23.25 26.75 C-23.91 25.698125 -24.57 24.64625 -25.25 23.5625 C-29.07427696 17.76633023 -36.23216497 14.76981745 -42.8046875 13.1015625 C-52.29744129 11.73678959 -62.01036366 12.54205938 -70.3125 17.625 C-73.33456125 20.93951879 -74.31250963 23.24976882 -74.125 27.75 C-73.02945012 31.506171 -72.17837024 33.10052217 -69.25 35.75 C-59.42167517 40.54543416 -48.24853519 41.77215478 -37.58544922 43.60180664 C-0.21792347 50.07028564 -0.21792347 50.07028564 10.75 64.75 C13.74156249 70.08042044 16.36478307 75.58652918 16.75 81.75 C16.80027344 82.53632813 16.85054687 83.32265625 16.90234375 84.1328125 C17.34365873 96.52493718 14.11640888 107.53211669 5.8515625 116.90234375 C-10.55274898 132.78830338 -33.65131934 135.21129523 -55.33984375 134.9609375 C-75.66097838 134.43260757 -95.86739325 128.00964736 -110.1875 112.9375 C-114.05646075 108.12796483 -117.12332702 102.53832363 -119.25 96.75 C-118.92 95.76 -118.59 94.77 -118.25 93.75 C-114.06997165 93.03266058 -109.8890645 92.320754 -105.70727539 91.61376953 C-104.28612587 91.37273222 -102.86522278 91.13023711 -101.44458008 90.88623047 C-99.39728527 90.53485588 -97.34914849 90.18881068 -95.30078125 89.84375 C-93.45480347 89.52954102 -93.45480347 89.52954102 -91.5715332 89.20898438 C-88.71741751 88.81458985 -86.1202087 88.53031789 -83.25 88.75 C-81.80078125 90.2890625 -81.80078125 90.2890625 -80.5625 92.375 C-75.33258242 99.9968954 -66.86864128 103.66949206 -58 105.375 C-48.05615301 106.3693847 -37.42521478 106.24287644 -28.625 100.8125 C-25.02104629 97.68275072 -24.34672812 96.08001159 -24 91.3125 C-24.24137536 87.87290113 -24.4820984 85.69650267 -26.25 82.75 C-28.58052185 81.67816441 -28.58052185 81.67816441 -31.25 80.75 C-32.01666992 80.43667725 -32.78333984 80.12335449 -33.57324219 79.80053711 C-42.35642751 76.38938094 -51.41418879 74.69495822 -60.62353516 72.89819336 C-74.64710244 70.14107779 -88.30807732 66.99782597 -100.25 58.75 C-101.1575 58.1725 -102.065 57.595 -103 57 C-110.5025575 49.4974425 -114.10219909 39.24958487 -114.625 28.75 C-114.01513586 16.52730623 -109.07845529 6.72380261 -100.28515625 -1.625 C-71.92289994 -24.27125456 -28.21244597 -19.53169336 0 0 Z " fill="#000F7E" transform="translate(1922.25,312.25)"/>
<path d="M0 0 C13.53 0 27.06 0 41 0 C41 48.84 41 97.68 41 148 C63.44 148 85.88 148 109 148 C109 159.88 109 171.76 109 184 C73.03 184 37.06 184 0 184 C0 123.28 0 62.56 0 0 Z " fill="#000F7E" transform="translate(499,260)"/>
<path d="M0 0 C0.33 0 0.66 0 1 0 C0.97643433 1.22964478 0.97643433 1.22964478 0.95239258 2.48413086 C0.44747003 24.92522977 0.44747003 24.92522977 4 47 C4.19867676 47.80131348 4.39735352 48.60262695 4.60205078 49.42822266 C10.93897308 74.61926885 21.93638607 99.28997235 36.79272461 120.625 C38 123 38 123 37.84716797 125.11108398 C36.93614495 127.14237653 35.94664609 128.54932109 34.48046875 130.22265625 C33.95864014 130.83367187 33.43681152 131.4446875 32.89916992 132.07421875 C32.33431885 132.73035156 31.76946777 133.38648438 31.1875 134.0625 C11.27961142 157.91552417 -3.63485847 186.60174485 -5 218 C-8.55728069 216.81423977 -8.81729641 216.12063723 -10.63671875 212.9765625 C-11.37317627 211.70703735 -11.37317627 211.70703735 -12.12451172 210.41186523 C-12.64029785 209.49219971 -13.15608398 208.57253418 -13.6875 207.625 C-14.22133301 206.67761963 -14.75516602 205.73023926 -15.30517578 204.75415039 C-37.64492978 164.36557133 -45.14023742 115.06115821 -34 70 C-33.78569336 69.12939941 -33.57138672 68.25879883 -33.35058594 67.36181641 C-30.19151912 55.00834768 -25.58264329 43.4446874 -20 32 C-19.53255371 31.02836914 -19.53255371 31.02836914 -19.05566406 30.03710938 C-13.88140923 19.40387881 -7.52416671 9.1448084 0 0 Z " fill="#000F7E" transform="translate(98,286)"/>
<path d="M0 0 C3.60337507 1.40060515 6.96717382 3.11273736 10.37890625 4.9140625 C38.7897661 19.43835917 68.7678942 25.83719684 100.31640625 28.2890625 C78.84352979 51.26666704 37.92509689 63.69557961 7.26945496 65.40307617 C5.12851973 65.46852425 2.98947692 65.50527915 0.84765625 65.52734375 C0.05809036 65.5371376 -0.73147552 65.54693146 -1.54496765 65.55702209 C-19.25037628 65.7313159 -36.38650374 65.55772787 -53.68359375 61.2890625 C-54.53824219 61.08007324 -55.39289063 60.87108398 -56.2734375 60.65576172 C-78.44391109 55.02456266 -98.67042556 45.17279205 -117.55859375 32.4140625 C-118.26798096 31.93727051 -118.97736816 31.46047852 -119.70825195 30.96923828 C-121.40521828 29.79637534 -123.05027492 28.54905131 -124.68359375 27.2890625 C-124.68359375 26.6290625 -124.68359375 25.9690625 -124.68359375 25.2890625 C-123.79800781 25.4334375 -122.91242188 25.5778125 -122 25.7265625 C-85.14392466 31.24922103 -15.65130707 -4.14634336 0 0 Z " fill="#000F7E" transform="translate(254.68359375,518.7109375)"/>
<path d="M0 0 C13.53 0 27.06 0 41 0 C41 60.72 41 121.44 41 184 C27.47 184 13.94 184 0 184 C0 123.28 0 62.56 0 0 Z " fill="#000F7E" transform="translate(1163,260)"/>
<path d="M0 0 C6.08662791 5.89028508 11.65853708 12.27670249 17.1875 18.6875 C26.87345774 29.76036162 36.98641008 40.24670436 48 50 C48.54060059 50.48533203 49.08120117 50.97066406 49.63818359 51.47070312 C61.9140463 62.4679056 75.25525413 71.93367269 89 81 C86.76993863 83.5090401 84.83963542 84.67064412 81.703125 85.83203125 C80.83872803 86.15276611 79.97433105 86.47350098 79.08374023 86.80395508 C78.14860596 87.1367749 77.21347168 87.46959473 76.25 87.8125 C75.27426025 88.16143311 74.29852051 88.51036621 73.29321289 88.86987305 C45.38343684 98.62368514 7.75836497 109.08633861 -20.625 95.5625 C-27.46740603 91.74479995 -32.10609713 87.85730227 -34.58984375 80.17578125 C-38.74803685 58.11755691 -26.70099655 36.67023789 -14.82421875 19.04296875 C-5.43294271 5.43294271 -5.43294271 5.43294271 0 0 Z " fill="#000F7E" transform="translate(148,427)"/>
<path d="M0 0 C1.13719482 0.35505615 1.13719482 0.35505615 2.29736328 0.71728516 C27.76700657 8.90801103 50.65199858 22.61458572 70 41 C71.41071844 42.21527255 72.82693719 43.42420605 74.25 44.625 C84.05094385 53.15283156 84.05094385 53.15283156 86 59 C85.03964844 58.96519531 84.07929688 58.93039062 83.08984375 58.89453125 C64.86538487 58.44577576 47.36882934 61.26700963 29.80444336 66.01806641 C28.85577393 66.27378418 27.90710449 66.52950195 26.9296875 66.79296875 C25.68034424 67.14137817 25.68034424 67.14137817 24.40576172 67.49682617 C21.06755067 68.19502517 18.2896863 68.7321768 15.23339844 66.99707031 C14.6974707 66.52881836 14.16154297 66.06056641 13.609375 65.578125 C12.9915918 65.053396 12.37380859 64.52866699 11.73730469 63.98803711 C11.08149414 63.41448486 10.42568359 62.84093262 9.75 62.25 C-9.00442969 46.47805159 -29.76236976 33.31276029 -52 23 C-53.1446875 22.46890625 -54.289375 21.9378125 -55.46875 21.390625 C-76.57822701 11.99787605 -98.05702193 7.08323337 -121 5 C-118.7554836 2.43788854 -116.97082935 1.43397882 -113.7109375 0.5 C-112.85991455 0.25403076 -112.0088916 0.00806152 -111.13208008 -0.24536133 C-110.22224365 -0.49439209 -109.31240723 -0.74342285 -108.375 -1 C-107.43873779 -1.26127686 -106.50247559 -1.52255371 -105.5378418 -1.79174805 C-71.00355145 -11.18195765 -34.16580668 -10.67094448 0 0 Z " fill="#000F7E" transform="translate(300,223)"/>
<path d="M0 0 C33 0 33 0 41 3 C45.28151741 7.28151741 47.08156632 11.44326491 47.3125 17.4375 C47.177338 22.8620015 45.49472389 26.37715692 41.8125 30.375 C41.214375 30.91125 40.61625 31.4475 40 32 C40.928125 32.53625 41.85625 33.0725 42.8125 33.625 C46.45320214 36.33768003 47.59364714 37.7028107 49 42 C49.88641945 49.14607287 49.2812698 55.08177409 45 61 C41.04382249 65.06310123 38.89644363 65.31530182 33 67 C22.11 67 11.22 67 0 67 C0 44.89 0 22.78 0 0 Z M11 10 C11 15.94 11 21.88 11 28 C13.866875 28.061875 16.73375 28.12375 19.6875 28.1875 C20.58170654 28.21481201 21.47591309 28.24212402 22.3972168 28.27026367 C27.01848454 28.31846126 30.38433888 28.22980006 34 25 C34.88453789 22.89116092 34.88453789 22.89116092 34.9375 20.5625 C35.00839844 19.80066406 35.07929687 19.03882813 35.15234375 18.25390625 C34.97199406 15.58565574 34.55999008 14.18028287 33 12 C28.65321756 9.39684215 24.08569671 9.76907784 19.1875 9.875 C16.485625 9.91625 13.78375 9.9575 11 10 Z M11 38 C11 43.94 11 49.88 11 56 C14.58458702 56.13487159 18.16411313 56.23405872 21.75 56.3125 C23.27367187 56.3753418 23.27367187 56.3753418 24.828125 56.43945312 C30.75676644 56.66380451 30.75676644 56.66380451 35.671875 53.73046875 C36.89090679 51.22428281 37.54433801 49.74895681 37.5 47 C37.5103125 46.360625 37.520625 45.72125 37.53125 45.0625 C36.6572141 41.66918417 35.70543529 40.29803787 33 38 C29.23525101 37.37484867 25.55283423 37.53065722 21.75 37.6875 C20.71875 37.71005859 19.6875 37.73261719 18.625 37.75585938 C16.08271187 37.81470864 13.54117107 37.90438738 11 38 Z " fill="#000F7E" transform="translate(1309,489)"/>
<path d="M0 0 C13 0 13 0 15.80175781 2.22460938 C16.34670898 3.25392578 16.89166016 4.28324219 17.453125 5.34375 C18.08782715 6.48126709 18.7225293 7.61878418 19.37646484 8.79077148 C20.00201374 10.02665656 20.62650737 11.26307628 21.25 12.5 C21.92324181 13.74479796 22.60116899 14.98707294 23.28369141 16.22680664 C24.62259406 18.67487759 25.93429516 21.13432084 27.22167969 23.60986328 C29.13929215 27.26554239 31.15897342 30.84855696 33.21777344 34.42578125 C35.59677313 38.56142628 37.86562427 42.73124855 40 47 C40.33 31.49 40.66 15.98 41 0 C44.63 0 48.26 0 52 0 C52 22.11 52 44.22 52 67 C47.71 67 43.42 67 39 67 C36.00956143 63.83972583 34.67796559 61.96038523 32.875 58.1875 C31.89325593 56.35415233 30.9114844 54.52081937 29.9296875 52.6875 C29.20797363 51.27404297 29.20797363 51.27404297 28.47167969 49.83203125 C26.14491958 45.35452341 23.56194995 41.03312433 21 36.6875 C20.12279318 35.17184801 19.24767999 33.65498171 18.375 32.13671875 C18.01148438 31.50467529 17.64796875 30.87263184 17.2734375 30.22143555 C15.51242556 27.14945556 13.75679597 24.07439295 12 21 C11.67 36.18 11.34 51.36 11 67 C7.37 67 3.74 67 0 67 C0 44.89 0 22.78 0 0 Z " fill="#000F7E" transform="translate(499,489)"/>
<path d="M0 0 C4.29 0 8.58 0 13 0 C13.75023437 1.31871094 14.50046875 2.63742187 15.2734375 3.99609375 C20.68883615 13.50150603 26.1293663 22.9890023 31.70068359 32.40405273 C32.07789551 33.04157471 32.45510742 33.67909668 32.84375 34.3359375 C33.16537109 34.87782715 33.48699219 35.4197168 33.81835938 35.97802734 C35.56818384 38.97225177 37.27937288 41.98890254 39 45 C39.33 30.15 39.66 15.3 40 0 C43.63 0 47.26 0 51 0 C51 22.11 51 44.22 51 67 C47.04 67 43.08 67 39 67 C36.19938927 63.86890357 34.82976232 61.66751218 33 58 C31.98718283 56.29321551 30.9735273 54.58685612 29.94378662 52.89022827 C28.43704996 50.39910305 26.97151873 47.88467042 25.50390625 45.37036133 C24.37372982 43.43532526 23.23793921 41.50366557 22.1015625 39.57226562 C21.3668504 38.31790572 20.63246421 37.06335485 19.8984375 35.80859375 C19.24536621 34.69282959 18.59229492 33.57706543 17.91943359 32.42749023 C15.82335387 28.68456691 13.9184903 24.83698061 12 21 C11.67 36.18 11.34 51.36 11 67 C7.37 67 3.74 67 0 67 C0 44.89 0 22.78 0 0 Z " fill="#000F7E" transform="translate(879,489)"/>
<path d="M0 0 C33 0 33 0 41 3 C46.3553627 8.3553627 48.2859632 12.92758539 48.3125 20.4375 C48.21782534 25.37728971 48.04824107 28.93567858 45 33 C43.07996399 34.82275419 41.11043133 36.3834994 39 38 C38.34 38.66 37.68 39.32 37 40 C37.39380859 40.74685059 37.78761719 41.49370117 38.19335938 42.26318359 C39.65025028 45.03084527 41.10346567 47.80039558 42.55419922 50.57128906 C43.18326087 51.77095542 43.81378877 52.96985409 44.44580078 54.16796875 C45.35312345 55.88860578 46.25477152 57.61223139 47.15625 59.3359375 C47.70087891 60.37282715 48.24550781 61.4097168 48.80664062 62.47802734 C50 65 50 65 50 67 C45.71 67 41.42 67 37 67 C35.39505797 63.95874024 33.79102201 60.91700837 32.1875 57.875 C31.73568359 57.0190625 31.28386719 56.163125 30.81835938 55.28125 C24 42.3412979 24 42.3412979 24 40 C20.04 40 16.08 40 12 40 C12 48.91 12 57.82 12 67 C8.04 67 4.08 67 0 67 C0 44.89 0 22.78 0 0 Z M12 11 C12 17.27 12 23.54 12 30 C15.2508878 30.10796306 18.49819179 30.18729295 21.75 30.25 C23.13058594 30.30027344 23.13058594 30.30027344 24.5390625 30.3515625 C29.865325 30.47518128 29.865325 30.47518128 34.609375 28.328125 C36.29036355 25.51388574 36.53590848 23.76767145 36.5 20.5 C36.5103125 19.5615625 36.520625 18.623125 36.53125 17.65625 C36.14287795 14.94440137 36.14287795 14.94440137 34.609375 12.671875 C30.51080659 10.04584614 26.50217808 10.5769515 21.75 10.75 C20.34621094 10.77707031 20.34621094 10.77707031 18.9140625 10.8046875 C16.60893562 10.85173091 14.30433646 10.92347222 12 11 Z " fill="#000F7E" transform="translate(1476,489)"/>
<path d="M0 0 C36.02941176 0 36.02941176 0 42.8125 5.125 C47.05466751 10.70042016 48.76236823 17.01162455 48 24 C46.27552317 30.9647475 43.01265791 34.99156139 37 39 C38.8686422 45.58320501 42.27457656 51.31034979 45.54296875 57.27539062 C45.98511719 58.09587891 46.42726563 58.91636719 46.8828125 59.76171875 C47.28902832 60.50381592 47.69524414 61.24591309 48.11376953 62.01049805 C49 64 49 64 49 67 C44.71 67 40.42 67 36 67 C35.20078125 65.13472656 34.4015625 63.26945313 33.578125 61.34765625 C32.75716519 59.54571905 31.93585112 57.74392204 31.10498047 55.9465332 C30.53928261 54.69996256 29.99041456 53.44560377 29.45947266 52.18383789 C28.69028885 50.36439471 27.85340013 48.57405257 27.015625 46.78515625 C26.53383789 45.70113525 26.05205078 44.61711426 25.55566406 43.50024414 C22.15923711 39.64600947 22.15923711 39.64600947 11 40 C11 48.91 11 57.82 11 67 C7.37 67 3.74 67 0 67 C0 44.89 0 22.78 0 0 Z M11 11 C11 17.27 11 23.54 11 30 C14.25049988 30.08096264 17.49898234 30.14048115 20.75 30.1875 C21.67039062 30.21263672 22.59078125 30.23777344 23.5390625 30.26367188 C24.42851563 30.27333984 25.31796875 30.28300781 26.234375 30.29296875 C27.05131836 30.3086792 27.86826172 30.32438965 28.70996094 30.34057617 C31.55859193 29.91692583 32.90819625 28.94679541 35 27 C36.40789469 22.46088599 36.57183316 18.2736284 34.625 13.9375 C33.78114651 12.93136699 32.9285452 11.9285452 32 11 C30.43827255 10.91314397 28.87270656 10.89297781 27.30859375 10.90234375 C26.36435547 10.90556641 25.42011719 10.90878906 24.44726562 10.91210938 C22.95743164 10.92467773 22.95743164 10.92467773 21.4375 10.9375 C20.44041016 10.94201172 19.44332031 10.94652344 18.41601562 10.95117188 C15.94398513 10.96299977 13.47198528 10.98093585 11 11 Z " fill="#000F7E" transform="translate(1794,489)"/>
<path d="M0 0 C7.10303172 5.40381508 10.38561597 13.6463625 11.78125 22.26171875 C13.07028009 33.97040875 12.01451228 46.22743293 4.79296875 55.9453125 C-1.13921559 62.35957051 -8.35009151 64.44645395 -16.8125 65.12890625 C-24.93069475 64.84238173 -31.37932378 62.33305686 -37.25 56.7109375 C-44.86056997 48.16666334 -45.83796404 37.84277884 -45.9375 26.81640625 C-45.39916198 19.45912002 -43.87764631 13.08548662 -39.9375 6.81640625 C-39.1021875 5.48609375 -39.1021875 5.48609375 -38.25 4.12890625 C-28.25278059 -5.86831316 -11.98808427 -7.323366 0 0 Z M-29.6875 12.81640625 C-33.68365577 18.14461394 -33.18731932 23.09794062 -33.25 29.50390625 C-33.27900391 30.47263672 -33.30800781 31.44136719 -33.33789062 32.43945312 C-33.39342873 38.75798071 -32.62914443 43.57618576 -28.9375 48.81640625 C-24.08909326 53.31849822 -20.94587292 54.17223043 -14.4765625 54.09765625 C-9.5254582 53.54922624 -6.83952586 50.81594842 -3.625 47.25390625 C-0.05623254 42.09901992 -0.68138482 36.66959991 -0.625 30.62890625 C-0.59599609 29.61248047 -0.56699219 28.59605469 -0.53710938 27.54882812 C-0.48357284 21.16974424 -1.05877138 16.05418824 -4.9375 10.81640625 C-9.3784093 6.86999524 -13.79921938 6.22586283 -19.64453125 6.5 C-24.28806103 7.14075965 -26.71137731 9.42716738 -29.6875 12.81640625 Z " fill="#000F7E" transform="translate(834.9375,492.18359375)"/>
<path d="M0 0 C6.7944617 5.49512241 9.23651106 13.39114179 10.47265625 21.78515625 C11.57413969 32.31906126 10.72019069 43.38925252 4.75 52.4375 C-1.74721821 59.96059477 -8.46496474 62.9709649 -18.125 63.75 C-25.9232369 63.50486878 -33.61037216 60.91846824 -39.25 55.4375 C-45.82854097 48.05232594 -47.96492521 36.52916309 -47.53125 26.84375 C-46.33138437 16.57823291 -44.66522906 6.73136789 -36.328125 -0.1484375 C-24.88372872 -7.82239314 -11.37325016 -7.51827211 0 0 Z M-30.25 9.4375 C-34.72212382 15.52468761 -34.83313386 21.75262002 -34.6875 29.0625 C-34.69458984 30.073125 -34.70167969 31.08375 -34.70898438 32.125 C-34.65523666 38.42588641 -34.20516808 43.2717856 -29.71484375 48.08203125 C-24.022356 52.43511012 -20.37777365 53.227038 -13.25 52.4375 C-8.82515122 50.22507561 -6.05523343 47.48950384 -3.25 43.4375 C-1.68801929 38.75155788 -2.02422252 34.03308823 -2 29.125 C-1.979375 28.09181641 -1.95875 27.05863281 -1.9375 25.99414062 C-1.89994926 18.67643977 -2.76342605 14.23489569 -7.75 8.625 C-11.80404628 5.0777095 -15.509713 5.08506828 -20.6796875 5.16796875 C-24.69545843 5.58907543 -27.25065885 6.77167561 -30.25 9.4375 Z " fill="#000F7E" transform="translate(1751.25,493.5625)"/>
<path d="M0 0 C6.34581672 4.54449954 9.61964314 10.76576089 11.58203125 18.20703125 C13.39658693 30.33233321 13.32633105 43.84194865 6.45703125 54.36328125 C1.89852634 60.06923591 -2.90086237 63.30653687 -10.1171875 64.52734375 C-19.43893391 65.48535233 -27.23489382 64.77358483 -35 59 C-41.69020123 53.41681048 -44.28247972 45.44536456 -45.22753906 36.95605469 C-46.08884537 25.19570255 -44.99815086 13.48534452 -37.4375 3.9375 C-27.31725258 -6.25771221 -12.22499117 -6.42620064 0 0 Z M-29.75 12.8125 C-32.93859718 18.39254506 -33.36098643 24.15534543 -33.3125 30.4375 C-33.30758545 31.18741211 -33.3026709 31.93732422 -33.29760742 32.70996094 C-33.14984213 39.66023394 -32.21108979 44.39204794 -27.5625 49.875 C-23.1714378 53.51636865 -19.95108557 54.46625157 -14.3125 54.30859375 C-10.55890063 53.80769113 -7.82174654 52.52124886 -5 50 C-0.38863537 43.83282542 0.20488916 38.20503881 0.25 30.8125 C0.270625 29.98685547 0.29125 29.16121094 0.3125 28.31054688 C0.35049736 22.28321592 -0.13516302 16.08298644 -4.45239258 11.43701172 C-9.48522582 7.14059759 -12.79011134 6.65579945 -19.234375 6.71484375 C-23.96358557 7.20246009 -26.55523172 9.50363286 -29.75 12.8125 Z " fill="#000F7E" transform="translate(1432,492)"/>
<path d="M0 0 C1.93166016 0.01740234 1.93166016 0.01740234 3.90234375 0.03515625 C5.19269531 0.04417969 6.48304687 0.05320312 7.8125 0.0625 C8.81152344 0.07410156 9.81054688 0.08570313 10.83984375 0.09765625 C13.89077435 7.48617394 16.59066321 14.96190914 19.16796875 22.52734375 C19.56183777 23.68009796 19.95570679 24.83285217 20.36151123 26.02053833 C21.18645487 28.4386582 22.00994088 30.8572758 22.83203125 33.27636719 C24.09391545 36.98462161 25.36516348 40.68958361 26.63671875 44.39453125 C27.43937683 46.7511064 28.24147994 49.10787066 29.04296875 51.46484375 C29.42414856 52.57213837 29.80532837 53.67943298 30.19805908 54.82028198 C30.54552185 55.8488028 30.89298462 56.87732361 31.25097656 57.93701172 C31.55867981 58.83950653 31.86638306 59.74200134 32.18341064 60.67184448 C32.83984375 63.09765625 32.83984375 63.09765625 32.83984375 67.09765625 C28.87984375 67.09765625 24.91984375 67.09765625 20.83984375 67.09765625 C20.00285989 64.64051078 19.17011951 62.18206768 18.33984375 59.72265625 C18.10136719 59.02398438 17.86289063 58.3253125 17.6171875 57.60546875 C15.83984375 52.32421875 15.83984375 52.32421875 15.83984375 50.09765625 C7.91984375 50.42765625 -0.00015625 50.75765625 -8.16015625 51.09765625 C-9.76391985 55.98805801 -9.76391985 55.98805801 -11.36108398 60.88061523 C-13.04904514 65.98654514 -13.04904514 65.98654514 -14.16015625 67.09765625 C-16.01303127 67.16992127 -17.86849503 67.18146845 -19.72265625 67.16015625 C-21.24052734 67.14662109 -21.24052734 67.14662109 -22.7890625 67.1328125 C-23.57152344 67.12121094 -24.35398437 67.10960937 -25.16015625 67.09765625 C-24.5981613 62.48367952 -23.72197168 58.30099564 -22.2265625 53.90283203 C-21.82945068 52.72536407 -21.43233887 51.54789612 -21.02319336 50.33474731 C-20.58990109 49.07074566 -20.15638347 47.80682123 -19.72265625 46.54296875 C-19.27762297 45.23272831 -18.83305021 43.92233137 -18.38891602 42.61178589 C-17.46132251 39.87887541 -16.52964525 37.14740522 -15.59472656 34.41699219 C-14.39466001 30.91180376 -13.20272053 27.40391915 -12.01350403 23.8950367 C-11.09800691 21.19543045 -10.17940894 18.49688817 -9.25973511 15.79870224 C-8.81885806 14.50470678 -8.37869108 13.21046917 -7.9392395 11.91598892 C-7.32707284 10.11500906 -6.71052344 8.31552069 -6.09375 6.51611328 C-5.74368896 5.49131866 -5.39362793 4.46652405 -5.03295898 3.41067505 C-3.79015903 0.11712482 -3.79015903 0.11712482 0 0 Z M2.83984375 13.09765625 C1.49919137 17.03270274 0.16858304 20.97107271 -1.16015625 24.91015625 C-1.7325 26.58948242 -1.7325 26.58948242 -2.31640625 28.30273438 C-2.67734375 29.37587891 -3.03828125 30.44902344 -3.41015625 31.5546875 C-3.7453125 32.5444458 -4.08046875 33.5342041 -4.42578125 34.55395508 C-5.2988438 37.13677243 -5.2988438 37.13677243 -5.16015625 40.09765625 C0.77984375 40.09765625 6.71984375 40.09765625 12.83984375 40.09765625 C11.55743462 35.7822004 10.26444707 31.47043232 8.96484375 27.16015625 C8.41763672 25.31260742 8.41763672 25.31260742 7.859375 23.42773438 C7.50488281 22.25791016 7.15039062 21.08808594 6.78515625 19.8828125 C6.46047363 18.7987915 6.13579102 17.71477051 5.80126953 16.59790039 C5.10540573 13.94946952 5.10540573 13.94946952 2.83984375 13.09765625 Z " fill="#000F7E" transform="translate(1246.16015625,488.90234375)"/>
<path d="M0 0 C4.95 0 9.9 0 15 0 C15.55985596 1.65451172 16.11971191 3.30902344 16.6965332 5.01367188 C18.5554251 10.50614056 20.41552815 15.99819825 22.27644062 21.4899826 C23.40364871 24.81665758 24.53038393 28.14349109 25.65600586 31.47070312 C26.95282182 35.30387501 28.2517529 39.1363273 29.55078125 42.96875 C30.15095818 44.74421204 30.15095818 44.74421204 30.76325989 46.55554199 C32.36493873 51.27654759 33.97013549 55.98054887 35.77807617 60.62695312 C37 64 37 64 37 67 C33.04 67 29.08 67 25 67 C24.16080602 64.73117913 23.32848276 62.46022973 22.5 60.1875 C22.26152344 59.54490234 22.02304688 58.90230469 21.77734375 58.24023438 C20.72931254 55.35066261 20 53.09923939 20 50 C11.75 50 3.5 50 -5 50 C-5.99 53.96 -6.98 57.92 -8 62 C-8.99 64.475 -8.99 64.475 -10 67 C-13.96 67 -17.92 67 -22 67 C-21.3530372 63.76518599 -20.73896606 60.96748742 -19.71240234 57.89428711 C-19.45478119 57.11834702 -19.19716003 56.34240692 -18.93173218 55.54295349 C-18.65261993 54.71280228 -18.37350769 53.88265106 -18.0859375 53.02734375 C-17.79320953 52.14961807 -17.50048157 51.2718924 -17.19888306 50.36756897 C-16.57655507 48.50360422 -15.95277002 46.6401254 -15.32763672 44.77709961 C-14.39606583 42.00029258 -13.46909507 39.22198635 -12.54296875 36.44335938 C-8.47233372 24.2562802 -4.27652579 12.11627585 0 0 Z M7 12 C5.71635832 15.82626882 4.43465956 19.65318222 3.15478516 23.48071289 C2.71880045 24.78362766 2.28227827 26.08636271 1.84521484 27.38891602 C1.21832409 29.25750533 0.59350435 31.12678905 -0.03125 32.99609375 C-0.40830078 34.12200928 -0.78535156 35.2479248 -1.17382812 36.40795898 C-2.05061357 38.70537537 -2.05061357 38.70537537 -2 40 C3.94 40 9.88 40 16 40 C14.64909235 33.50121609 12.92169754 27.24896681 10.875 20.9375 C10.59785156 20.07189453 10.32070312 19.20628906 10.03515625 18.31445312 C9.36031038 16.2084686 8.68188659 14.10371313 8 12 C7.67 12 7.34 12 7 12 Z " fill="#000F7E" transform="translate(1575,489)"/>
<path d="M0 0 C1.93166016 0.01740234 1.93166016 0.01740234 3.90234375 0.03515625 C5.19269531 0.04417969 6.48304688 0.05320312 7.8125 0.0625 C8.81152344 0.07410156 9.81054688 0.08570313 10.83984375 0.09765625 C24.63826859 39.30565937 24.63826859 39.30565937 29.71484375 54.41015625 C30.04162109 55.37308594 30.36839844 56.33601562 30.70507812 57.328125 C30.99447266 58.19695313 31.28386719 59.06578125 31.58203125 59.9609375 C31.82808105 60.69610596 32.07413086 61.43127441 32.32763672 62.1887207 C32.83984375 64.09765625 32.83984375 64.09765625 32.83984375 67.09765625 C28.87984375 67.09765625 24.91984375 67.09765625 20.83984375 67.09765625 C20.00064977 64.82883538 19.16832651 62.55788598 18.33984375 60.28515625 C18.10136719 59.64255859 17.86289062 58.99996094 17.6171875 58.33789062 C16.56915629 55.44831886 15.83984375 53.19689564 15.83984375 50.09765625 C7.58984375 50.09765625 -0.66015625 50.09765625 -9.16015625 50.09765625 C-9.82015625 53.06765625 -10.48015625 56.03765625 -11.16015625 59.09765625 C-12.04571381 61.83151055 -13.09159968 64.42626482 -14.16015625 67.09765625 C-18.12015625 67.09765625 -22.08015625 67.09765625 -26.16015625 67.09765625 C-23.40883901 56.04047566 -19.51215721 45.39330454 -15.72265625 34.66015625 C-14.71515724 31.79682714 -13.70875802 28.93311474 -12.70297241 26.06918335 C-12.05854426 24.2343104 -11.41339719 22.39968976 -10.76748657 20.56533813 C-8.72537264 14.75395695 -6.75011868 8.92732912 -4.86694336 3.06225586 C-3.72045267 -0.12455263 -3.61284555 0.11164541 0 0 Z M2.83984375 12.09765625 C-1.61515625 25.95765625 -1.61515625 25.95765625 -6.16015625 40.09765625 C0.10984375 40.09765625 6.37984375 40.09765625 12.83984375 40.09765625 C9.86984375 30.85765625 6.89984375 21.61765625 3.83984375 12.09765625 C3.50984375 12.09765625 3.17984375 12.09765625 2.83984375 12.09765625 Z " fill="#000F7E" transform="translate(985.16015625,488.90234375)"/>
<path d="M0 0 C4.62 0 9.24 0 14 0 C16.92623811 7.151255 19.56439493 14.34934406 22.0390625 21.66796875 C22.40599213 22.74701981 22.77292175 23.82607086 23.15097046 24.93782043 C23.92029655 27.20216826 24.68831473 29.46696084 25.45507812 31.73217773 C26.62555393 35.18913601 27.80074008 38.64446647 28.9765625 42.09960938 C29.72684098 44.30980132 30.47685029 46.52008466 31.2265625 48.73046875 C31.75003769 50.26975288 31.75003769 50.26975288 32.28408813 51.84013367 C33.98259975 56.86487759 35.60141314 61.88331689 37 67 C33.04 67 29.08 67 25 67 C22.84370792 61.6811462 20.81672901 56.45018704 19 51 C11.08 51 3.16 51 -5 51 C-6.65 56.28 -8.3 61.56 -10 67 C-13.96 67 -17.92 67 -22 67 C-21.38979518 61.35912041 -19.94908853 56.363134 -18.0859375 51.015625 C-17.79320953 50.16055359 -17.50048157 49.30548218 -17.19888306 48.42449951 C-16.57805746 46.61483925 -15.95424683 44.80620062 -15.32763672 42.99853516 C-14.39300948 40.30196071 -13.46711858 37.60252444 -12.54296875 34.90234375 C-8.52624201 23.20636799 -4.32280095 11.58610219 0 0 Z M6 13 C4.66197735 17.123494 3.33037699 21.24903352 2 25.375 C1.42765625 27.1384375 1.42765625 27.1384375 0.84375 28.9375 C0.4828125 30.05898438 0.121875 31.18046875 -0.25 32.3359375 C-0.58515625 33.37282715 -0.9203125 34.4097168 -1.265625 35.47802734 C-2.09319294 37.88225441 -2.09319294 37.88225441 -2 40 C3.94 40 9.88 40 16 40 C14.32450749 33.56258142 12.49138484 27.20054041 10.4375 20.875 C10.22778564 20.21169678 10.01807129 19.54839355 9.80200195 18.86499023 C9.25976483 17.22286589 8.63610028 15.60809511 8 14 C7.34 13.67 6.68 13.34 6 13 Z " fill="#000F7E" transform="translate(602,489)"/>
<path d="M0 0 C4.46798213 -0.59661482 8.55039097 -0.82163044 13 0 C16.09418677 2.73469619 17.32953441 6.2790158 19 10 C20.5768304 12.90264382 22.23028594 15.76042455 23.875 18.625 C24.66606453 20.03273101 25.45528609 21.44150014 26.2421875 22.8515625 C26.82226562 23.89054688 27.40234375 24.92953125 28 26 C28.66 26 29.32 26 30 26 C30.35304199 25.31897217 30.70608398 24.63794434 31.06982422 23.9362793 C32.66975875 20.85241996 34.27234732 17.76994754 35.875 14.6875 C36.43058594 13.61564453 36.98617188 12.54378906 37.55859375 11.43945312 C38.09355469 10.41142578 38.62851563 9.38339844 39.1796875 8.32421875 C39.67194824 7.37635498 40.16420898 6.42849121 40.67138672 5.4519043 C42 3 42 3 44 0 C47.0390625 -0.29296875 47.0390625 -0.29296875 50.625 -0.1875 C51.81351563 -0.16042969 53.00203125 -0.13335937 54.2265625 -0.10546875 C55.14179687 -0.07066406 56.05703125 -0.03585937 57 0 C55.59600315 3.72804349 53.90331712 7.13362434 51.953125 10.60546875 C51.355 11.67216797 50.756875 12.73886719 50.140625 13.83789062 C49.51671875 14.94326172 48.8928125 16.04863281 48.25 17.1875 C47.33734375 18.81655273 47.33734375 18.81655273 46.40625 20.47851562 C45.80296875 21.55166016 45.1996875 22.62480469 44.578125 23.73046875 C43.98209473 24.79845703 43.38606445 25.86644531 42.77197266 26.96679688 C41 30 41 30 39.23974609 32.53320312 C34.41243851 39.56049679 34.107025 45.73067715 34.125 54.125 C34.104375 55.36765625 34.08375 56.6103125 34.0625 57.890625 C34.01577481 60.92776242 33.99552474 63.96257977 34 67 C30.37 67 26.74 67 23 67 C23.06703125 65.37835937 23.1340625 63.75671875 23.203125 62.0859375 C23.4710847 45.83424351 20.43986523 35.11652733 11.63525391 21.53662109 C9.51994167 18.25532905 7.5483446 14.89946679 5.58178711 11.52758789 C4.71483253 10.04494458 3.83723622 8.56845621 2.94750977 7.09936523 C0 2.21445078 0 2.21445078 0 0 Z " fill="#000F7E" transform="translate(1866,489)"/>
<path d="M0 0 C16.5 0 33 0 50 0 C50 3.63 50 7.26 50 11 C43.73 11 37.46 11 31 11 C31 29.48 31 47.96 31 67 C27.04 67 23.08 67 19 67 C19 48.52 19 30.04 19 11 C12.73 11 6.46 11 0 11 C0 7.37 0 3.74 0 0 Z " fill="#000F7E" transform="translate(1629,489)"/>
<path d="M0 0 C16.5 0 33 0 50 0 C50 3.63 50 7.26 50 11 C43.73 11 37.46 11 31 11 C31 29.48 31 47.96 31 67 C27.04 67 23.08 67 19 67 C19 48.52 19 30.04 19 11 C12.73 11 6.46 11 0 11 C0 7.37 0 3.74 0 0 Z " fill="#000F7E" transform="translate(656,489)"/>
<path d="M0 0 C9.9 0 19.8 0 30 0 C30 3.3 30 6.6 30 10 C27.03 10 24.06 10 21 10 C21 25.51 21 41.02 21 57 C23.97 57 26.94 57 30 57 C30 60.3 30 63.6 30 67 C20.1 67 10.2 67 0 67 C0 63.7 0 60.4 0 57 C2.97 57 5.94 57 9 57 C9 41.49 9 25.98 9 10 C6.03 10 3.06 10 0 10 C0 6.7 0 3.4 0 0 Z " fill="#000F7E" transform="translate(733,489)"/>
<path d="M0 0 C3.96 0 7.92 0 12 0 C12 18.48 12 36.96 12 56 C20.58 56 29.16 56 38 56 C38 59.63 38 63.26 38 67 C25.46 67 12.92 67 0 67 C0 44.89 0 22.78 0 0 Z " fill="#000F7E" transform="translate(1156,489)"/>
<path d="M0 0 C3.96 0 7.92 0 12 0 C12 18.48 12 36.96 12 56 C20.58 56 29.16 56 38 56 C38 59.63 38 63.26 38 67 C25.46 67 12.92 67 0 67 C0 44.89 0 22.78 0 0 Z " fill="#000F7E" transform="translate(1047,489)"/>
</svg>
